<svg width="100" height="100" viewBox="0 0 100 100" fill="none" xmlns="http://www.w3.org/2000/svg">
<rect width="100" height="100" fill="#EF7D57"/>
<path d="M31.6172 24.9425C28.0287 24.9425 25.3742 28.0845 25.4927 31.492C25.6067 34.765 25.4587 39.005 24.3912 42.462C23.3212 45.93 21.5112 48.1215 18.5547 48.4035V51.597C21.5112 51.8785 23.3212 54.0705 24.3912 57.5385C25.4587 60.9955 25.6062 65.2355 25.4927 68.5085C25.3737 71.916 28.0287 75.0575 31.6172 75.0575H68.3872C71.9757 75.0575 74.6302 71.9155 74.5117 68.5085C74.3977 65.2355 74.5457 60.9955 75.6127 57.5385C76.6827 54.071 78.4882 51.879 81.4447 51.597V48.4035C78.4882 48.122 76.6832 45.93 75.6127 42.462C74.5457 39.005 74.3977 34.765 74.5117 31.492C74.6302 28.0845 71.9757 24.9425 68.3867 24.9425H31.6172ZM60.6742 55.7855C60.6742 60.4775 57.1732 63.322 51.3637 63.322H40.6527C40.6204 63.3221 40.5885 63.3158 40.5587 63.3035C40.5288 63.2911 40.5018 63.2731 40.4789 63.2502C40.4561 63.2274 40.4381 63.2003 40.4257 63.1705C40.4134 63.1407 40.4071 63.1088 40.4072 63.0765V36.9135C40.4071 36.8812 40.4133 36.8492 40.4256 36.8193C40.4379 36.7895 40.456 36.7623 40.4788 36.7394C40.5016 36.7166 40.5287 36.6985 40.5585 36.6861C40.5884 36.6738 40.6204 36.6674 40.6527 36.6675H51.3072C56.1517 36.6675 59.3307 39.2905 59.3307 43.3175C59.3307 46.144 57.1922 48.674 54.4672 49.1175V49.2655C58.1762 49.672 60.6742 52.2395 60.6742 55.7855ZM50.2852 40.048H44.6462V48.009H49.3962C53.0672 48.009 55.0917 46.5315 55.0917 43.89C55.0917 41.415 53.3512 40.048 50.2852 40.048ZM44.6462 51.168V59.942H50.4937C54.3162 59.942 56.3412 58.409 56.3412 55.527C56.3412 52.6455 54.2597 51.168 50.2477 51.168H44.6462Z" fill="#262D48"/>
</svg>
