<svg width="100" height="100" viewBox="0 0 100 100" fill="none" xmlns="http://www.w3.org/2000/svg">
<rect width="100" height="100" fill="#EF7D57"/>
<g clip-path="url(#clip0_80_69)">
<path d="M48.5758 18C50.9224 21.7947 47.8291 26.816 45.3571 29.6213C42.9598 32.3413 40.0451 34.616 37.3971 37.088C34.5544 39.744 31.8211 42.5387 29.4851 45.656C24.8104 51.8933 21.9464 59.736 24.0504 67.52C26.1518 75.296 32.8878 80.2453 40.4958 81.9973C36.6558 80.3387 33.0664 76.1227 33.0558 71.8107C33.0478 67.104 36.0291 63.112 39.7358 60.488C39.2904 62.1733 39.0478 63.7147 40.1491 65.2187C40.6602 65.9068 41.3579 66.4339 42.1596 66.7373C42.9612 67.0408 43.8331 67.1079 44.6718 66.9307C48.6371 66.0613 48.8211 61.704 46.4691 59.16C44.1438 56.6453 41.8958 53.8027 42.7784 50.1547C43.2238 48.328 44.3464 46.6133 45.7678 45.3893C44.6744 48.264 47.7811 51.096 49.8291 52.5093C53.3811 54.9573 57.2771 56.808 60.5411 59.6773C63.9758 62.696 66.5144 66.7733 65.9998 71.504C65.4451 76.632 61.3704 80.1973 56.7998 82C66.4584 79.8667 76.4398 72.3733 76.6398 61.6613C76.8878 53.576 71.5651 46.416 62.8851 41.9707C63.3918 43.2507 63.0824 43.8293 62.7304 44.4347C61.2638 46.952 57.1784 47.5067 55.1704 44.9253C51.9571 40.7973 55.2371 36.3493 55.6958 31.9787C56.2691 26.4987 52.8344 21.1813 48.5758 18Z" fill="#262D48"/>
</g>
<defs>
<clipPath id="clip0_80_69">
<rect width="64" height="64" fill="white" transform="translate(18 18)"/>
</clipPath>
</defs>
</svg>
