<svg width="100" height="100" viewBox="0 0 100 100" fill="none" xmlns="http://www.w3.org/2000/svg">
<rect width="100" height="100" fill="#EF7D57"/>
<path d="M22.3799 18.5L27.4074 74.9415L49.9664 81.2315L72.5884 74.9185L77.6199 18.5H22.3799ZM67.1754 31.431L65.5019 50.2335L65.5069 50.335L65.4999 50.5685V50.5665L64.3109 63.7135L64.1799 64.8815L49.9999 68.8035L49.9889 68.8135L35.8334 64.8695L34.8749 54H41.8164L42.3089 59.527L50.0019 61.612L49.9999 61.616V61.615L57.7214 59.5005L58.5374 50.5H42.3959L42.2574 48.9785L41.9419 45.414L41.7764 43.5H59.1509L59.7829 36.5H33.3199L33.1814 34.9795L32.8664 31.414L32.7004 29.5H67.3409L67.1754 31.431Z" fill="#262D48"/>
</svg>
