<svg width="100" height="100" viewBox="0 0 100 100" fill="none" xmlns="http://www.w3.org/2000/svg">
<rect width="100" height="100" fill="#EF7D57"/>
<g clip-path="url(#clip0_85_113)">
<path d="M50.1096 18.6331C32.8026 18.6331 18.7816 32.7171 18.7501 50.1036H18.7441V74.4651H18.7501C18.7581 78.4081 21.9416 81.6016 25.8711 81.6016H50.1036C67.4141 81.5901 81.4316 67.5081 81.4316 50.1291C81.4316 32.7421 67.4046 18.6581 50.0726 18.6581L50.1096 18.6331ZM56.4786 31.5921C61.7421 31.5921 66.7111 35.6386 66.7111 41.2226C66.7111 41.7401 66.7151 42.2576 66.6291 42.8456C66.4841 44.3306 65.1331 45.3986 63.6601 45.1896C62.1896 44.9766 61.1896 43.5746 61.4631 42.1056C61.4881 41.9376 61.4961 41.6741 61.4961 41.2226C61.4961 38.0566 58.9181 36.8361 56.4806 36.8361C54.0431 36.8361 51.8456 38.8946 51.8421 41.2226C51.8831 43.9161 51.8421 46.5861 51.8421 49.2796L56.3671 49.2446C59.9006 49.1721 59.9416 54.5136 56.4081 54.4886L51.8456 54.5216C51.8341 56.6896 51.8616 56.2966 51.8516 57.3886C51.8516 57.3886 51.8886 60.0371 51.8106 62.0451C51.2636 67.9451 46.2636 72.6601 40.2541 72.6601C33.8811 72.6601 28.6331 67.4316 28.6331 61.0201C28.8241 54.4261 34.0626 49.2366 40.6581 49.2971L44.3381 49.2696V54.5041L40.6581 54.5371H40.6406C37.0156 54.6446 33.9081 57.1171 33.8496 61.0156C33.8475 61.8567 34.0117 62.6901 34.3328 63.4676C34.6538 64.2451 35.1254 64.9515 35.7204 65.5461C36.3154 66.1407 37.0221 66.6119 37.7998 66.9325C38.5775 67.253 39.411 67.4167 40.2521 67.4141C43.7951 67.4141 46.6311 64.8241 46.6311 61.0236L46.6251 41.1991C46.6271 40.8301 46.6386 40.5371 46.6801 40.1331C47.2776 35.2831 51.5956 31.5881 56.4846 31.5881L56.4786 31.5921Z" fill="#262D48"/>
</g>
<defs>
<clipPath id="clip0_85_113">
<rect width="64" height="64" fill="white" transform="translate(18 18)"/>
</clipPath>
</defs>
</svg>
