<svg width="100" height="100" viewBox="0 0 100 100" fill="none" xmlns="http://www.w3.org/2000/svg">
<rect width="100" height="100" fill="#EF7D57"/>
<path d="M50.0028 42C47.8811 42 45.8463 42.8429 44.346 44.3432C42.8457 45.8435 42.0028 47.8783 42.0028 50C42.0028 52.1218 42.8457 54.1566 44.346 55.6569C45.8463 57.1572 47.8811 58 50.0028 58C52.1246 58 54.1594 57.1572 55.6597 55.6569C57.16 54.1566 58.0028 52.1218 58.0028 50C58.0028 47.8783 57.16 45.8435 55.6597 44.3432C54.1594 42.8429 52.1246 42 50.0028 42ZM50.0028 36.6667C53.539 36.6667 56.9304 38.0715 59.4309 40.5719C61.9314 43.0724 63.3362 46.4638 63.3362 50C63.3362 53.5363 61.9314 56.9276 59.4309 59.4281C56.9304 61.9286 53.539 63.3334 50.0028 63.3334C46.4666 63.3334 43.0752 61.9286 40.5747 59.4281C38.0743 56.9276 36.6695 53.5363 36.6695 50C36.6695 46.4638 38.0743 43.0724 40.5747 40.5719C43.0752 38.0715 46.4666 36.6667 50.0028 36.6667ZM67.3362 36C67.3362 36.8841 66.985 37.7319 66.3599 38.3571C65.7347 38.9822 64.8869 39.3334 64.0028 39.3334C63.1188 39.3334 62.2709 38.9822 61.6458 38.3571C61.0207 37.7319 60.6695 36.8841 60.6695 36C60.6695 35.116 61.0207 34.2681 61.6458 33.643C62.2709 33.0179 63.1188 32.6667 64.0028 32.6667C64.8869 32.6667 65.7347 33.0179 66.3599 33.643C66.985 34.2681 67.3362 35.116 67.3362 36ZM50.0028 28.6667C43.4055 28.6667 42.3282 28.6854 39.2588 28.8214C37.1682 28.92 35.7655 29.2 34.4642 29.7067C33.3757 30.1077 32.3914 30.7484 31.5842 31.5814C30.7502 32.3884 30.1086 33.3727 29.7068 34.4614C29.2002 35.768 28.9202 37.168 28.8242 39.256C28.6855 42.2 28.6668 43.2294 28.6668 50C28.6668 56.6 28.6855 57.6747 28.8215 60.744C28.9202 62.832 29.2002 64.2374 29.7042 65.536C30.1575 66.696 30.6908 67.5307 31.5762 68.416C32.4748 69.312 33.3095 69.848 34.4562 70.2907C35.7735 70.8 37.1762 71.0827 39.2562 71.1787C42.2002 71.3174 43.2295 71.3334 50.0002 71.3334C56.6002 71.3334 57.6748 71.3147 60.7442 71.1787C62.8295 71.08 64.2322 70.8 65.5362 70.296C66.6246 69.895 67.6089 69.2543 68.4162 68.4214C69.3148 67.5254 69.8508 66.6907 70.2935 65.5414C70.8002 64.2294 71.0828 62.8267 71.1788 60.7414C71.3175 57.8 71.3335 56.768 71.3335 50C71.3335 43.4027 71.3148 42.3254 71.1788 39.256C71.0802 37.1707 70.7975 35.7627 70.2935 34.4614C69.8925 33.3729 69.2518 32.3886 68.4188 31.5814C67.6118 30.7474 66.6275 30.1058 65.5388 29.704C64.2322 29.1974 62.8295 28.9174 60.7442 28.8214C57.8028 28.6827 56.7735 28.6667 50.0002 28.6667M50.0002 23.3334C57.2455 23.3334 58.1495 23.36 60.9948 23.4934C63.8322 23.6267 65.7682 24.072 67.4668 24.7334C69.2268 25.4107 70.7095 26.328 72.1922 27.808C73.5487 29.1407 74.598 30.7533 75.2668 32.5334C75.9255 34.232 76.3735 36.168 76.5068 39.008C76.6322 41.8507 76.6668 42.7547 76.6668 50C76.6668 57.2454 76.6402 58.1494 76.5068 60.992C76.3735 63.8347 75.9255 65.7654 75.2668 67.4667C74.598 69.2468 73.5487 70.8594 72.1922 72.192C70.8595 73.5486 69.2469 74.5979 67.4668 75.2667C65.7682 75.9254 63.8322 76.3734 60.9948 76.5067C58.1495 76.632 57.2455 76.6667 50.0002 76.6667C42.7548 76.6667 41.8508 76.64 39.0055 76.5067C36.1682 76.3734 34.2348 75.9254 32.5335 75.2667C30.7534 74.5979 29.1408 73.5486 27.8082 72.192C26.4516 70.8594 25.4023 69.2468 24.7335 67.4667C24.0722 65.768 23.6268 63.832 23.4935 60.992C23.3655 58.1494 23.3335 57.2454 23.3335 50C23.3335 42.7547 23.3602 41.8507 23.4935 39.008C23.6268 36.1654 24.0722 34.2347 24.7335 32.5334C25.4023 30.7533 26.4516 29.1407 27.8082 27.808C29.1408 26.4515 30.7534 25.4022 32.5335 24.7334C34.2322 24.072 36.1655 23.6267 39.0055 23.4934C41.8535 23.368 42.7575 23.3334 50.0028 23.3334" fill="#262D48"/>
</svg>
