<svg width="100" height="100" viewBox="0 0 100 100" fill="none" xmlns="http://www.w3.org/2000/svg">
<rect width="100" height="100" fill="#EF7D57"/>
<g clip-path="url(#clip0_80_63)">
<path d="M22.067 33.6534C16.3977 41.7974 17.1017 52.3894 21.435 61.0374C21.5364 61.2454 21.6413 61.4489 21.7497 61.648C21.8119 61.7831 21.8804 61.9165 21.955 62.048C21.9924 62.1227 22.0342 62.1956 22.0804 62.2667C22.1515 62.4054 22.2235 62.5405 22.2964 62.672L22.715 63.3814C22.795 63.512 22.867 63.64 22.955 63.7707C23.1044 64.0214 23.275 64.2694 23.4297 64.52C23.4955 64.6267 23.5657 64.7307 23.6404 64.832C23.8979 65.2398 24.1737 65.6358 24.467 66.0187C24.6715 66.3031 24.8848 66.5831 25.107 66.8587L25.3364 67.1654L25.923 67.8827C25.9977 67.9627 26.0697 68.0614 26.147 68.1467C26.4102 68.4596 26.6822 68.7707 26.963 69.08L26.9764 69.096C27.3132 69.5247 27.6929 69.9179 28.1097 70.2694C28.3213 70.4916 28.539 70.7094 28.763 70.9227L29.0324 71.1814C29.3257 71.4623 29.6279 71.7369 29.939 72.0054C29.939 72.0054 29.947 72.008 29.9524 72.0134L30.1044 72.1467C30.3764 72.3867 30.6519 72.6178 30.931 72.84L31.2644 73.12L31.9577 73.6534L32.323 73.9334C32.571 74.12 32.835 74.304 33.0884 74.4854C33.1808 74.5529 33.275 74.6178 33.371 74.68L33.451 74.7414L34.1977 75.2347L34.5177 75.448C34.9106 75.6969 35.3017 75.9387 35.691 76.1734C35.803 76.2285 35.9124 76.2889 36.019 76.3547C36.3106 76.5236 36.603 76.6862 36.8964 76.8427C37.0564 76.9316 37.2199 77.0151 37.387 77.0934C37.5879 77.2036 37.7959 77.3147 38.011 77.4267C38.0628 77.4421 38.1128 77.4626 38.1604 77.488L38.4164 77.6134C38.7364 77.7734 39.0697 77.9289 39.4164 78.08C39.4822 78.1049 39.5497 78.1351 39.619 78.1707C40.0013 78.3378 40.3906 78.4996 40.787 78.656C40.8777 78.6827 40.9737 78.728 41.067 78.7627C41.4297 78.9014 41.795 79.0365 42.163 79.168L42.2964 79.216C42.7053 79.3547 43.1142 79.488 43.523 79.616L43.819 79.704C44.2457 79.832 44.6564 79.984 45.083 80.0694C72.4777 85.0614 80.4377 63.5974 80.4377 63.5974C73.7497 72.3067 61.883 74.6027 50.6404 72.048C50.2244 71.952 49.8084 71.8187 49.3871 71.696C48.8797 71.545 48.3756 71.3832 47.875 71.2107L47.7097 71.1467C47.3506 71.0223 46.995 70.8907 46.643 70.752L46.3497 70.6454C45.9586 70.4854 45.5737 70.3218 45.195 70.1547C45.1124 70.128 45.043 70.0907 44.9604 70.0587L43.995 69.6054L43.7124 69.4667C43.4617 69.3494 43.2111 69.2134 42.9657 69.0854C42.7973 69.0044 42.631 68.919 42.467 68.8294C42.163 68.6694 41.8617 68.496 41.5604 68.3307C41.4679 68.2685 41.3684 68.2098 41.2617 68.1547C40.8677 67.921 40.4774 67.681 40.091 67.4347C39.9837 67.3691 39.8788 67.2997 39.7764 67.2267C39.4934 67.0514 39.2159 66.8673 38.9444 66.6747L38.6697 66.48C38.4041 66.2964 38.1418 66.1079 37.883 65.9147C37.7693 65.8258 37.6519 65.7369 37.531 65.648C37.2964 65.4614 37.059 65.288 36.8244 65.0934L36.5097 64.84C36.207 64.5971 35.9092 64.3481 35.6164 64.0934L35.5177 64.0107L34.5924 63.168L34.3257 62.9174C34.107 62.6951 33.8848 62.4765 33.659 62.2614L33.3977 61.9947C33.116 61.7144 32.8412 61.4272 32.5737 61.1334L32.5337 61.0907C32.251 60.7814 31.9728 60.4658 31.699 60.144C31.6279 60.0622 31.5568 59.976 31.4857 59.8854L30.8804 59.1467C30.5728 58.7517 30.2706 58.3525 29.9737 57.9494C23.739 49.44 21.483 37.6907 26.4724 28.056M39.6537 26.7947C35.547 32.6907 35.7764 40.5787 38.9764 46.816C39.5043 47.866 40.1086 48.8759 40.7844 49.8374C41.3977 50.7174 42.075 51.76 42.899 52.472C43.187 52.7938 43.4928 53.1138 43.8164 53.432L44.0564 53.672C44.3622 53.9636 44.6733 54.2525 44.9897 54.5387L45.0324 54.5734C45.3922 54.8872 45.7603 55.1913 46.1364 55.4854C46.227 55.5467 46.3044 55.6187 46.3924 55.68C46.7657 55.9662 47.1462 56.2471 47.5337 56.5227L47.5737 56.5467C47.739 56.664 47.915 56.7796 48.1017 56.8934C48.1764 56.9414 48.2617 57.0054 48.3417 57.0534C48.6226 57.2311 48.9053 57.4062 49.1897 57.5787L49.3177 57.64C49.5577 57.7867 49.819 57.928 50.0697 58.0587C50.1577 58.112 50.2431 58.152 50.3364 58.2027C50.5142 58.2916 50.6893 58.3823 50.8617 58.4747L50.947 58.512C51.3097 58.6898 51.6724 58.8587 52.035 59.0187C52.1239 59.0542 52.2057 59.0889 52.2804 59.1227C52.5773 59.2507 52.8759 59.3725 53.1764 59.488C53.3097 59.5334 53.435 59.5867 53.5604 59.6267C53.8324 59.728 54.1204 59.8214 54.3871 59.9147L54.7604 60.0347C55.1524 60.1547 55.547 60.312 55.9577 60.3814C77.1044 63.8827 82.0004 47.5947 82.0004 47.5947C77.5924 53.9414 69.0617 56.9627 59.9711 54.6027C59.5686 54.4988 59.1694 54.3832 58.7737 54.256C58.6457 54.2187 58.5337 54.1787 58.4111 54.1414C58.1337 54.0454 57.8484 53.9547 57.579 53.8507L57.195 53.7067C56.8937 53.5867 56.5897 53.4747 56.2991 53.3467C56.2084 53.3067 56.1257 53.28 56.0564 53.24C55.6813 53.0747 55.3097 52.904 54.9417 52.728L54.3924 52.4427L54.075 52.2827C53.8361 52.1554 53.6005 52.022 53.3684 51.8827L53.203 51.7894C52.9204 51.6134 52.6244 51.4427 52.3551 51.2614C52.2662 51.208 52.1799 51.1529 52.0964 51.096L51.5417 50.7334C51.1577 50.4667 50.7817 50.1787 50.4004 49.8987C50.315 49.824 50.2315 49.7538 50.1497 49.688C46.1524 46.5467 43.0004 42.248 41.5044 37.3867C39.931 32.328 40.2777 26.6587 42.9977 22.0534M54.4431 21.6614C52.0191 25.2187 51.787 29.6347 53.4564 33.5547C55.2297 37.7227 58.8537 40.9947 63.0777 42.5414C63.2484 42.6054 63.4226 42.6676 63.6004 42.728L63.835 42.8C64.0804 42.88 64.3284 42.968 64.5817 43.024C76.2644 45.2774 79.4271 37.024 80.2777 35.8134C77.4964 39.808 72.8324 40.7654 67.1097 39.3734C66.6437 39.256 66.1844 39.1136 65.7337 38.9467C65.1722 38.7517 64.622 38.5256 64.0857 38.2694C63.0689 37.7781 62.1025 37.1886 61.2004 36.5094C56.0751 32.624 52.899 25.2134 56.243 19.176" fill="#262D48"/>
</g>
<defs>
<clipPath id="clip0_80_63">
<rect width="64" height="64" fill="white" transform="translate(18 18)"/>
</clipPath>
</defs>
</svg>
