<svg width="100" height="100" viewBox="0 0 100 100" fill="none" xmlns="http://www.w3.org/2000/svg">
<rect width="100" height="100" fill="#EF7D57"/>
<path d="M19 18.5V81H81.5V18.5H19ZM52.0595 71.7565C51.137 73.631 49.376 74.8625 47.3355 75.457C44.2 76.177 41.201 75.7665 38.97 74.4275C37.477 73.5115 36.311 72.1015 35.5195 70.477L40.2795 67.562C40.321 67.5795 40.446 67.8055 40.613 68.0975C41.22 69.1145 41.7435 69.8345 42.7725 70.34C43.7835 70.685 46.003 70.9055 46.86 69.1265C47.3835 68.2215 47.217 65.3125 47.217 62.094C47.2165 57.0365 47.24 52 47.24 47H53.0945C53.0945 52.5 53.1245 57.709 53.0945 63.076C53.107 66.366 53.3925 69.299 52.0595 71.7565ZM76.3465 70.1025C74.3115 77.0635 62.9655 77.2895 58.4315 72.6905C57.4735 71.608 56.873 71.0425 56.3015 69.793C58.711 68.407 58.711 68.407 61.0555 67.0505C62.329 69.008 63.5065 70.0845 65.625 70.525C68.499 70.876 71.3905 69.8885 70.742 66.836C70.0755 64.343 64.857 63.7365 61.3055 61.0705C57.7 58.649 56.855 52.765 59.818 49.403C60.8055 48.1595 62.4895 47.2315 64.2565 46.7855L66.1005 46.547C69.641 46.4755 71.854 47.4105 73.4785 49.2245C73.9305 49.6825 74.2995 50.1765 74.9895 51.247C73.1035 52.449 73.1095 52.4375 70.408 54.1865C69.831 52.9435 68.8735 52.1635 67.8615 51.8245C66.2905 51.3485 64.3095 51.866 63.8985 53.526C63.756 54.0375 63.7855 54.5135 64.012 55.3585C64.6485 56.81 66.7845 57.441 68.7005 58.3215C74.216 60.5585 76.0785 62.957 76.5365 65.812C76.9775 68.27 76.43 69.8645 76.3465 70.1025Z" fill="#262D48"/>
</svg>
