<svg width="180" height="82" viewBox="0 0 180 82" fill="none" xmlns="http://www.w3.org/2000/svg">
<mask id="path-1-inside-1_83_101" fill="white">
<path d="M0 0H180V66H0V0Z"/>
</mask>
<path d="M0 0H180V66H0V0Z" fill="#262D48"/>
<path d="M6 66V0H-6V66H6Z" fill="#EF7D57" mask="url(#path-1-inside-1_83_101)"/>
<path d="M41.696 45.32C40.1173 45.32 38.7627 45.064 37.632 44.552C36.5013 44.0187 35.6267 43.272 35.008 42.312C34.3893 41.3307 34.08 40.168 34.08 38.824H37.504C37.504 39.8907 37.8773 40.7333 38.624 41.352C39.3707 41.9493 40.4053 42.248 41.728 42.248C42.9653 42.248 43.936 41.9493 44.64 41.352C45.344 40.7547 45.696 39.9333 45.696 38.888C45.696 38.0133 45.4507 37.256 44.96 36.616C44.4907 35.976 43.808 35.5387 42.912 35.304L39.968 34.44C38.2613 33.9493 36.9387 33.1173 36 31.944C35.0827 30.7493 34.624 29.3307 34.624 27.688C34.624 26.408 34.912 25.288 35.488 24.328C36.064 23.368 36.8853 22.6213 37.952 22.088C39.0187 21.5547 40.2773 21.288 41.728 21.288C43.8613 21.288 45.568 21.864 46.848 23.016C48.1493 24.168 48.8107 25.7147 48.832 27.656H45.376C45.376 26.632 45.0453 25.832 44.384 25.256C43.744 24.6587 42.8373 24.36 41.664 24.36C40.5333 24.36 39.648 24.6373 39.008 25.192C38.368 25.7253 38.048 26.4827 38.048 27.464C38.048 28.3387 38.2827 29.096 38.752 29.736C39.2427 30.376 39.936 30.824 40.832 31.08L43.808 31.976C45.5147 32.4453 46.8267 33.2773 47.744 34.472C48.6613 35.6667 49.12 37.096 49.12 38.76C49.12 40.0613 48.8107 41.2133 48.192 42.216C47.5733 43.1973 46.7093 43.9653 45.6 44.52C44.4907 45.0533 43.1893 45.32 41.696 45.32ZM53.8755 45V21.64H57.3315V31.368H60.4355L65.2035 21.64H68.9795L63.4755 32.84L69.2355 45H65.3635L60.3715 34.472H57.3315V45H53.8755ZM73.511 45V41.928H78.215V24.712H73.511V21.64H86.439V24.712H81.735V41.928H86.439V45H73.511ZM93.0505 45V21.64H96.5065V41.832H106.715V45H93.0505ZM112.238 45V21.64H115.694V41.832H125.902V45H112.238ZM137.634 45.32C136.055 45.32 134.7 45.064 133.57 44.552C132.439 44.0187 131.564 43.272 130.946 42.312C130.327 41.3307 130.018 40.168 130.018 38.824H133.442C133.442 39.8907 133.815 40.7333 134.562 41.352C135.308 41.9493 136.343 42.248 137.666 42.248C138.903 42.248 139.874 41.9493 140.578 41.352C141.282 40.7547 141.634 39.9333 141.634 38.888C141.634 38.0133 141.388 37.256 140.898 36.616C140.428 35.976 139.746 35.5387 138.85 35.304L135.906 34.44C134.199 33.9493 132.876 33.1173 131.938 31.944C131.02 30.7493 130.562 29.3307 130.562 27.688C130.562 26.408 130.85 25.288 131.426 24.328C132.002 23.368 132.823 22.6213 133.89 22.088C134.956 21.5547 136.215 21.288 137.666 21.288C139.799 21.288 141.506 21.864 142.786 23.016C144.087 24.168 144.748 25.7147 144.77 27.656H141.314C141.314 26.632 140.983 25.832 140.322 25.256C139.682 24.6587 138.775 24.36 137.602 24.36C136.471 24.36 135.586 24.6373 134.946 25.192C134.306 25.7253 133.986 26.4827 133.986 27.464C133.986 28.3387 134.22 29.096 134.69 29.736C135.18 30.376 135.874 30.824 136.77 31.08L139.746 31.976C141.452 32.4453 142.764 33.2773 143.682 34.472C144.599 35.6667 145.058 37.096 145.058 38.76C145.058 40.0613 144.748 41.2133 144.13 42.216C143.511 43.1973 142.647 43.9653 141.538 44.52C140.428 45.0533 139.127 45.32 137.634 45.32Z" fill="white"/>
</svg>
