<svg width="100" height="100" viewBox="0 0 100 100" fill="none" xmlns="http://www.w3.org/2000/svg">
<rect width="100" height="100" fill="#EF7D57"/>
<g clip-path="url(#clip0_80_51)">
<path d="M81.045 32.48C81.0687 32.5669 81.0812 32.6565 81.0823 32.7466V46.4773C81.0823 46.8373 80.8877 47.1706 80.5783 47.3466L69.0503 53.9866V67.144C69.0494 67.3199 69.0027 67.4926 68.9148 67.645C68.8269 67.7975 68.7008 67.9244 68.549 68.0133L44.4797 81.864C44.4241 81.8949 44.365 81.919 44.3037 81.936L44.2397 81.9626C44.0723 82.0103 43.895 82.0103 43.7277 81.9626C43.6992 81.9537 43.6725 81.9431 43.6477 81.9306C43.5925 81.9128 43.5374 81.8906 43.4823 81.864L19.421 68.0133C19.2686 67.9247 19.142 67.7979 19.0536 67.6455C18.9653 67.493 18.9182 67.3202 18.917 67.144V25.9306C18.917 25.8417 18.9294 25.7546 18.9543 25.6693C18.9623 25.6373 18.981 25.616 18.9917 25.584C19.008 25.5309 19.0286 25.4792 19.053 25.4293C19.0637 25.3946 19.093 25.3706 19.1143 25.3413L19.2023 25.2213L19.301 25.1493C19.3365 25.1173 19.373 25.0871 19.4103 25.0586L31.4477 18.1333C31.6001 18.0468 31.7724 18.0013 31.9477 18.0013C32.1229 18.0013 32.2952 18.0468 32.4477 18.1333L44.4797 25.0586H44.485C44.5223 25.0853 44.5579 25.1146 44.5917 25.1466L44.693 25.2186C44.7277 25.256 44.7463 25.2986 44.781 25.3386C44.8023 25.368 44.8343 25.3946 44.8477 25.4266C44.8725 25.4782 44.8939 25.5297 44.9117 25.5813C44.9197 25.6106 44.9383 25.6373 44.9463 25.6666C44.9712 25.7502 44.9837 25.8373 44.9837 25.928V51.6666L55.0103 45.896V32.7386C55.0103 32.6497 55.0219 32.5626 55.045 32.4773C55.0574 32.4524 55.069 32.424 55.0797 32.392L55.1437 32.2346C55.1623 32.2026 55.1917 32.1813 55.2103 32.1466L55.2983 32.032C55.3321 32.0017 55.365 31.9768 55.397 31.9573C55.4325 31.9271 55.469 31.8986 55.5063 31.872H55.509L67.5437 24.944C67.6961 24.8575 67.8684 24.812 68.0437 24.812C68.2189 24.812 68.3912 24.8575 68.5437 24.944L80.5783 31.872C80.621 31.8986 80.6503 31.928 80.6903 31.9546L80.7863 32.0293L80.877 32.1466C80.8983 32.1786 80.9277 32.2026 80.941 32.2346C80.968 32.2855 80.9895 32.3391 81.005 32.3946C81.0228 32.4213 81.0361 32.4497 81.045 32.48ZM79.0717 45.8986V34.4773L74.8637 36.8986L69.045 40.248V51.6693L79.0717 45.8986ZM67.045 66.5653V55.1333L61.3197 58.4L44.9837 67.728V79.2613L67.045 66.5653ZM20.9143 27.664V66.5653L42.9757 79.2613V67.728L31.4503 61.208L31.445 61.2H31.4397L31.333 61.1173L31.2397 61.0453L31.237 61.04C31.205 61.008 31.1774 60.9724 31.1543 60.9333C31.1259 60.9048 31.101 60.8728 31.0797 60.8373H31.0743L31.021 60.712C31.005 60.6693 30.9837 60.64 30.973 60.5973L30.9517 60.4453C30.9428 60.4097 30.9374 60.3733 30.9357 60.336V33.4373L25.1223 30.0853L20.9143 27.664ZM31.9463 20.16L21.9197 25.9306L31.9463 31.7013L41.9677 25.9306L31.9463 20.16ZM37.1623 56.1733L42.981 52.824V27.664L38.7677 30.0906L32.949 33.4373V58.5973L37.1623 56.1733ZM68.045 26.9733L58.0183 32.7413L68.045 38.5093L78.069 32.7386L68.045 26.9733ZM67.0423 40.248L61.2263 36.8986L57.013 34.48V45.9013L62.8317 49.2506L67.045 51.672L67.0423 40.248ZM43.9757 65.992L58.6797 57.5973L66.029 53.4053L56.0103 47.6373L44.4823 54.2746L33.973 60.328L43.9757 65.992Z" fill="#262D48"/>
</g>
<defs>
<clipPath id="clip0_80_51">
<rect width="64" height="64" fill="white" transform="translate(18 18)"/>
</clipPath>
</defs>
</svg>
