<svg width="100" height="100" viewBox="0 0 100 100" fill="none" xmlns="http://www.w3.org/2000/svg">
<rect width="100" height="100" fill="#EF7D57"/>
<path d="M28.6696 26H71.3363C72.0435 26 72.7218 26.281 73.2219 26.781C73.722 27.2811 74.0029 27.9594 74.0029 28.6667V71.3333C74.0029 72.0406 73.722 72.7189 73.2219 73.219C72.7218 73.7191 72.0435 74 71.3363 74H28.6696C27.9624 74 27.2841 73.7191 26.784 73.219C26.2839 72.7189 26.0029 72.0406 26.0029 71.3333V28.6667C26.0029 27.9594 26.2839 27.2811 26.784 26.781C27.2841 26.281 27.9624 26 28.6696 26ZM31.3363 31.3333V68.6667H68.6696V31.3333H31.3363ZM38.0029 42C36.9421 42 35.9246 41.5786 35.1745 40.8284C34.4244 40.0783 34.0029 39.0609 34.0029 38C34.0029 36.9391 34.4244 35.9217 35.1745 35.1716C35.9246 34.4214 36.9421 34 38.0029 34C39.0638 34 40.0812 34.4214 40.8314 35.1716C41.5815 35.9217 42.0029 36.9391 42.0029 38C42.0029 39.0609 41.5815 40.0783 40.8314 40.8284C40.0812 41.5786 39.0638 42 38.0029 42ZM35.3363 44.6667H40.6696V64.6667H35.3363V44.6667ZM50.0029 45.8133C51.5603 44.3067 53.3789 43.3333 55.3363 43.3333C60.8589 43.3333 64.6696 47.8107 64.6696 53.3333V64.6667H59.3363V53.3333C59.3363 52.0957 58.8446 50.9087 57.9694 50.0335C57.0943 49.1583 55.9073 48.6667 54.6696 48.6667C53.4319 48.6667 52.2449 49.1583 51.3698 50.0335C50.4946 50.9087 50.0029 52.0957 50.0029 53.3333V64.6667H44.6696V44.6667H50.0029V45.8133Z" fill="#262D48"/>
</svg>
