<svg width="100" height="100" viewBox="0 0 100 100" fill="none" xmlns="http://www.w3.org/2000/svg">
<rect width="100" height="100" fill="#EF7D57"/>
<path d="M50 22.9333C49.28 22.9333 48.5333 23.12 47.92 23.4667L28.08 34.9333C26.8 35.68 26 37.0667 26 38.56V61.44C26 62.9334 26.8 64.32 28.08 65.0667L33.28 68.0534C35.8133 69.28 36.6667 69.3067 37.84 69.3067C41.5733 69.3067 43.7333 67.04 43.7333 63.0933V40.5067C43.7333 40.1867 43.4667 39.92 43.1467 39.92H40.6667C40.32 39.92 40.0533 40.1867 40.0533 40.5067V63.0933C40.0533 64.8533 38.24 66.5867 35.3333 65.12L29.8667 62C29.7769 61.9366 29.7035 61.8528 29.6525 61.7554C29.6015 61.658 29.5743 61.5499 29.5733 61.44V38.56C29.5733 38.32 29.68 38.1067 29.8667 38L49.7067 26.56C49.8667 26.4533 50.1333 26.4533 50.2933 26.56L70.1333 38C70.32 38.1067 70.4267 38.32 70.4267 38.56V61.44C70.4267 61.6534 70.32 61.8667 70.1333 62L50.2933 73.44C50.1333 73.5467 49.8667 73.5467 49.68 73.44L44.6667 70.4C44.4533 70.32 44.24 70.2933 44.1067 70.3733C42.6933 71.1733 42.4267 71.3333 41.12 71.7333C40.8 71.84 40.2933 72.0267 41.3067 72.5867L47.92 76.5067C48.56 76.88 49.2533 77.0667 50 77.0667C50.7467 77.0667 51.44 76.88 52.08 76.5067L71.92 65.0667C73.2 64.32 74 62.9334 74 61.44V38.56C74 37.0667 73.2 35.68 71.92 34.9333L52.08 23.4667C51.4667 23.12 50.7467 22.9333 50 22.9333ZM55.3333 39.3334C49.68 39.3334 46.2933 41.7067 46.2933 45.7067C46.2933 50 49.6533 51.2533 55.0933 51.7867C61.5733 52.4267 62.08 53.3867 62.08 54.6667C62.08 56.88 60.2933 57.8134 56.1333 57.8134C50.8533 57.8134 49.7333 56.5067 49.3333 53.8933C49.3053 53.7583 49.2317 53.6369 49.1249 53.5496C49.0181 53.4622 48.8846 53.4141 48.7467 53.4133H46.1867C45.8667 53.4133 45.6267 53.6533 45.6267 54C45.6267 57.3067 47.44 61.3067 56.1333 61.3067C62.4 61.3067 66 58.8267 66 54.5067C66 50.2133 63.12 49.0934 57.0133 48.2667C50.8533 47.4667 50.24 47.04 50.24 45.6C50.24 44.4 50.7733 42.8 55.3333 42.8C59.3333 42.8 60.9067 43.68 61.52 46.4267C61.5733 46.6933 61.8133 46.88 62.08 46.88H64.6667C64.8 46.88 64.96 46.8267 65.0667 46.6933C65.1733 46.5867 65.2533 46.4267 65.2 46.2667C64.8267 41.52 61.68 39.3334 55.3333 39.3334Z" fill="#262D48"/>
</svg>
