<svg width="100" height="100" viewBox="0 0 100 100" fill="none" xmlns="http://www.w3.org/2000/svg">
<rect width="100" height="100" fill="#EF7D57"/>
<g clip-path="url(#clip0_81_93)">
<path d="M82 67.568C81.0685 67.9197 80.0405 67.9186 79.1098 67.565C78.179 67.2113 77.4097 66.5295 76.9467 65.648L67.7467 52.9253L66.4134 51.1466L55.7387 65.664C55.304 66.5089 54.5764 67.1666 53.692 67.5141C52.8076 67.8616 51.827 67.875 50.9334 67.552L64.688 49.0986L51.8934 32.4293C52.8134 32.0978 53.8195 32.0934 54.7423 32.4169C55.6652 32.7403 56.4484 33.372 56.96 34.2053L66.496 47.0853L76.0854 34.2586C76.5234 33.4287 77.2512 32.7887 78.1303 32.4603C79.0093 32.1319 79.9785 32.1379 80.8534 32.4773L75.888 39.0666L69.1627 47.8213C68.9759 47.9879 68.8265 48.1921 68.7242 48.4205C68.6218 48.6489 68.5689 48.8964 68.5689 49.1466C68.5689 49.3969 68.6218 49.6444 68.7242 49.8728C68.8265 50.1012 68.9759 50.3054 69.1627 50.472L81.9734 67.5706L82 67.568ZM18.0054 48.8693L19.1254 43.336C22.2027 32.3946 34.7467 27.8426 43.376 34.616C48.4294 38.5866 49.6907 44.208 49.4427 50.544H20.976C20.5147 61.8586 28.68 68.6906 39.12 65.2C40.8122 64.5904 42.3269 63.5707 43.5284 62.2323C44.73 60.8939 45.5811 59.2785 46.0054 57.5306C46.5574 55.7546 47.4667 55.4506 49.136 55.9626C48.8573 58.1288 48.0913 60.2037 46.8955 62.0313C45.6997 63.8589 44.1053 65.3917 42.232 66.5146C39.1374 68.2083 35.5863 68.8798 32.0869 68.4329C28.5875 67.986 25.3191 66.4437 22.7494 64.0266C20.209 61.1658 18.6732 57.5531 18.376 53.7386C18.376 53.112 18.1627 52.5253 18.0187 51.9626C18.0057 50.9325 17.9995 49.9022 18 48.872L18.0054 48.8693ZM21.0107 48.1066H46.7547C46.5947 39.904 41.4187 34.0853 34.5147 34.032C26.8294 33.9253 21.3307 39.616 20.992 48.0693L21.0107 48.1066Z" fill="#262D48"/>
</g>
<defs>
<clipPath id="clip0_81_93">
<rect width="64" height="64" fill="white" transform="translate(18 18)"/>
</clipPath>
</defs>
</svg>
