<svg width="100" height="100" viewBox="0 0 100 100" fill="none" xmlns="http://www.w3.org/2000/svg">
<rect width="100" height="100" fill="#EF7D57"/>
<g clip-path="url(#clip0_79_31)">
<path fill-rule="evenodd" clip-rule="evenodd" d="M49.9998 56.3999V81.9999C42.0252 81.9951 34.3399 79.013 28.4493 73.6377C22.5587 68.2624 18.8873 60.8813 18.1545 52.9406C17.4217 44.9998 19.6802 37.0715 24.4876 30.709C29.295 24.3464 36.3048 20.0081 44.1438 18.5439L49.9998 24.3999H65.9998C70.2377 24.3999 74.3025 26.0813 77.3022 29.0749C80.3018 32.0686 81.9913 36.13 81.9998 40.3679V69.2319C81.9913 72.6212 80.639 75.8687 78.2394 78.2622C75.8399 80.6558 72.589 82 69.1998 81.9999V75.5999C70.8972 75.5999 72.525 74.9257 73.7252 73.7254C74.9255 72.5252 75.5998 70.8973 75.5998 69.1999C75.5998 67.5026 74.9255 65.8747 73.7252 64.6745C72.525 63.4742 70.8972 62.7999 69.1998 62.7999H56.3998L49.9998 56.3999ZM67.5998 46.7999C68.8728 46.7999 70.0937 46.2942 70.9939 45.3941C71.894 44.4939 72.3998 43.273 72.3998 41.9999C72.3998 40.7269 71.894 39.506 70.9939 38.6058C70.0937 37.7057 68.8728 37.1999 67.5998 37.1999C66.3267 37.1999 65.1058 37.7057 64.2057 38.6058C63.3055 39.506 62.7998 40.7269 62.7998 41.9999C62.7998 43.273 63.3055 44.4939 64.2057 45.3941C65.1058 46.2942 66.3267 46.7999 67.5998 46.7999Z" fill="#262D48"/>
</g>
<defs>
<clipPath id="clip0_79_31">
<rect width="64" height="64" fill="white" transform="translate(18 18)"/>
</clipPath>
</defs>
</svg>
