<svg width="100" height="100" viewBox="0 0 100 100" fill="none" xmlns="http://www.w3.org/2000/svg">
<rect width="100" height="100" fill="#EF7D57"/>
<g clip-path="url(#clip0_80_39)">
<mask id="mask0_80_39" style="mask-type:luminance" maskUnits="userSpaceOnUse" x="18" y="18" width="64" height="64">
<path d="M18 18H82V82H18V18Z" fill="white"/>
</mask>
<g mask="url(#mask0_80_39)">
<path d="M82 49.1706C82 44.9306 76.6907 40.912 68.5493 38.4213C70.4293 30.1253 69.5947 23.5226 65.9147 21.408C65.0227 20.9092 64.0137 20.6578 62.992 20.68V23.5866C63.592 23.5866 64.0747 23.7066 64.48 23.928C66.2533 24.9466 67.024 28.8186 66.424 33.8026C66.28 35.0293 66.0453 36.32 65.7573 37.6373C63.0306 36.9826 60.2637 36.5078 57.4747 36.216C55.8121 33.9241 53.9992 31.7451 52.048 29.6933C56.3013 25.7413 60.2933 23.576 63.008 23.576V20.6666C59.4187 20.6666 54.7227 23.224 49.9733 27.6586C45.2267 23.2533 40.528 20.72 36.9413 20.72V23.6266C39.6427 23.6266 43.648 25.7813 47.9013 29.7066C46.0747 31.6266 44.248 33.8026 42.512 36.216C39.7171 36.5036 36.9452 36.9829 34.216 37.6506C33.9173 36.3457 33.6907 35.0853 33.536 33.8693C32.9227 28.8826 33.68 25.0106 35.4427 23.9813C35.832 23.7466 36.3413 23.64 36.9413 23.64V20.7333C35.848 20.7333 34.8533 20.968 33.9947 21.4613C30.328 23.576 29.5067 30.1626 31.3973 38.4346C23.2827 40.9413 18 44.944 18 49.1706C18 53.4106 23.3093 57.4293 31.4507 59.9173C29.5707 68.216 30.4053 74.8186 34.0853 76.9306C34.9333 77.4266 35.9253 77.6613 37.0187 77.6613C40.608 77.6613 45.304 75.104 50.0533 70.6693C54.8 75.0773 59.496 77.608 63.0853 77.608C64.1147 77.6272 65.1309 77.3752 66.032 76.8773C69.6987 74.7653 70.52 68.1786 68.6293 59.9066C76.7173 57.416 82 53.3973 82 49.1706ZM65.0133 40.4693C64.5067 42.2129 63.9194 43.9321 63.2533 45.6213C62.1649 43.4997 60.9678 41.4356 59.6667 39.4373C61.5227 39.7093 63.3058 40.0533 65.016 40.4693M59.0427 54.3626C58.0658 56.0678 57.0168 57.7306 55.8987 59.3466C51.9846 59.691 48.0481 59.6954 44.1333 59.36C41.8883 56.1521 39.9246 52.7564 38.264 49.2106C39.9208 45.6559 41.8763 42.2481 44.1093 39.024C48.0224 38.6789 51.958 38.6735 55.872 39.008C56.9564 40.5635 58.0089 42.2168 59.0293 43.968C60.0196 45.6764 60.9244 47.4062 61.744 49.1573C60.9146 50.9284 60.0134 52.6649 59.0427 54.3626ZM63.2533 52.6666C63.9573 54.416 64.56 56.1626 65.0533 57.8586C63.3467 58.2773 61.544 58.6293 59.68 58.9013C60.9741 56.8838 62.1667 54.803 63.2533 52.6666ZM50.0267 66.5866C48.8107 65.3315 47.6018 63.9395 46.4 62.4106C47.5733 62.464 48.7733 62.504 49.9867 62.504C51.2151 62.5057 52.424 62.4746 53.6133 62.4106C52.44 63.9386 51.2267 65.3333 50.0267 66.5866ZM40.32 58.9013C38.5219 58.6412 36.7369 58.2977 34.9707 57.872C35.4533 56.1893 36.0533 54.4533 36.7307 52.72C37.2667 53.76 37.8293 54.8053 38.4427 55.8506C39.056 56.8942 39.6818 57.9111 40.32 58.9013ZM49.96 31.7546C51.176 33.0097 52.3849 34.4017 53.5867 35.9306C52.4133 35.8773 51.2133 35.8373 50 35.8373C48.7716 35.8355 47.5627 35.8666 46.3733 35.9306C47.5467 34.4026 48.76 33.008 49.96 31.7546ZM40.3067 39.44C39.0129 41.4531 37.8203 43.5294 36.7333 45.6613C36.0487 43.9611 35.448 42.2284 34.9333 40.4693C36.64 40.064 38.4427 39.712 40.3067 39.44ZM28.5013 55.7706C23.8827 53.8026 20.896 51.2186 20.896 49.1706C20.896 47.1226 23.8827 44.5253 28.5013 42.5706C29.6213 42.088 30.848 41.656 32.1147 41.2533C32.8587 43.808 33.8373 46.4693 35.048 49.1973C33.9037 51.7626 32.937 54.4035 32.1547 57.1013C30.916 56.7172 29.6968 56.2731 28.5013 55.7706ZM35.52 74.4106C33.7467 73.3973 32.976 69.52 33.576 64.5386C33.72 63.312 33.9547 62.0186 34.2427 60.7013C36.7973 61.328 39.5893 61.8106 42.5253 62.1253C44.1879 64.4172 46.0008 66.5962 47.952 68.648C43.6987 72.6 39.7067 74.7653 36.992 74.7653C36.4802 74.7674 35.9755 74.6466 35.52 74.4133M66.464 64.4746C67.0773 69.4586 66.32 73.3333 64.5573 74.3626C64.168 74.5973 63.6587 74.7013 63.0587 74.7013C60.3573 74.7013 56.352 72.5493 52.0987 68.6213C54.0425 66.5789 55.8433 64.4048 57.488 62.1146C60.2829 61.827 63.0548 61.3476 65.784 60.68C66.088 61.9955 66.3147 63.2604 66.464 64.4746ZM71.4853 55.7733C70.3653 56.256 69.1387 56.688 67.872 57.0906C67.0745 54.3795 66.0944 51.7255 64.9387 49.1466C66.1387 46.4346 67.1013 43.7866 67.832 41.2426C69.1262 41.6462 70.3484 42.0897 71.4987 42.5733C76.1173 44.5413 79.104 47.1253 79.104 49.1733C79.0907 51.2213 76.104 53.8186 71.4853 55.7733Z" fill="#262D48"/>
<path d="M49.9866 55.1333C51.568 55.1333 53.0846 54.5051 54.2028 53.3869C55.3211 52.2687 55.9493 50.7521 55.9493 49.1707C55.9493 47.5893 55.3211 46.0726 54.2028 44.9544C53.0846 43.8362 51.568 43.208 49.9866 43.208C48.4052 43.208 46.8886 43.8362 45.7704 44.9544C44.6521 46.0726 44.0239 47.5893 44.0239 49.1707C44.0239 50.7521 44.6521 52.2687 45.7704 53.3869C46.8886 54.5051 48.4052 55.1333 49.9866 55.1333Z" fill="#262D48"/>
</g>
</g>
<defs>
<clipPath id="clip0_80_39">
<rect width="64" height="64" fill="white" transform="translate(18 18)"/>
</clipPath>
</defs>
</svg>
