<svg width="100" height="100" viewBox="0 0 100 100" fill="none" xmlns="http://www.w3.org/2000/svg">
<rect width="100" height="100" fill="#EF7D57"/>
<path d="M49.4183 33.2534C46.2901 33.2109 43.2558 34.3221 40.8947 36.3747C38.5337 38.4273 37.0113 41.2776 36.6183 44.3814C37.3757 43.0908 38.4382 42.0058 39.7126 41.2215C40.987 40.4372 42.4343 39.9775 43.9277 39.8827C48.4317 39.8827 51.8583 45.1414 53.949 46.7814C55.9447 48.3588 58.3025 49.413 60.8088 49.8484C63.315 50.2838 65.8903 50.0866 68.301 49.2747C73.6343 47.5734 76.125 41.6347 76.6663 38.8187C74.0823 42.4961 70.1597 44.7041 65.309 42.1014C61.9677 40.3067 59.469 32.9334 49.4183 33.2534ZM36.133 49.9441C33.0047 49.8997 29.9698 51.0099 27.6084 53.0623C25.247 55.1147 23.7249 57.9654 23.333 61.0694C24.0914 59.7774 25.1556 58.6915 26.4319 57.9071C27.7083 57.1227 29.1578 56.6638 30.653 56.5707C35.157 56.5707 38.5837 61.8294 40.6743 63.4694C42.67 65.0468 45.0279 66.101 47.5341 66.5364C50.0403 66.9718 52.6156 66.7746 55.0263 65.9627C60.3597 64.2614 62.8477 58.3227 63.3917 55.5067C60.805 59.1841 56.885 61.3947 52.0343 58.7894C48.693 56.9947 46.1943 49.6081 36.133 49.9441Z" fill="#262D48"/>
</svg>
