<svg width="100" height="100" viewBox="0 0 100 100" fill="none" xmlns="http://www.w3.org/2000/svg">
<rect width="100" height="100" fill="#EF7D57"/>
<path d="M50.4904 21.76H50.4851C42.2398 21.8187 35.8664 24.5947 31.5838 30.0427C27.7758 34.8827 25.8238 41.6373 25.7598 50.016V50.0213C25.8264 58.4027 27.7758 65.12 31.5838 69.96C35.8664 75.4053 42.2744 78.184 50.5171 78.24H50.5224C57.8504 78.1893 63.0478 76.2667 67.3304 71.9893C72.9411 66.3813 72.7758 59.3467 70.9224 55.0213C69.5091 51.7307 66.7224 49.0987 62.9864 47.4613C62.5064 39.5013 58.0264 34.8587 50.6664 34.8107C46.3198 34.784 42.3944 36.7307 39.9918 40.376L44.4051 43.4053C45.8264 41.248 48.0771 40.208 50.6318 40.232C54.3304 40.256 56.7651 42.296 57.4451 45.8773C55.2533 45.549 53.0328 45.4551 50.8211 45.5973C43.7811 46.0027 39.1731 50.1627 39.4798 55.9307C39.7998 61.9627 45.6451 65.2507 51.1944 64.9467C57.8398 64.5813 61.7891 59.6773 62.7251 53.424C64.2638 54.4187 65.3998 55.6907 66.0424 57.192C67.2158 59.9253 67.2904 64.4347 63.6024 68.12C60.3571 71.3627 56.4558 72.776 50.5038 72.8187C43.9038 72.7707 38.9518 70.656 35.7384 66.5707C32.7198 62.7307 31.1411 57.168 31.0824 50C31.1411 42.832 32.7198 37.2667 35.7384 33.432C38.9518 29.344 43.9038 27.232 50.5038 27.1813C57.1518 27.232 62.1944 29.3547 65.5331 33.464C67.3758 35.7307 68.5304 38.44 69.3011 41.2373L74.4744 39.8587C73.5064 36.2907 71.9758 32.8907 69.6344 30.008C65.2264 24.584 58.7491 21.8187 50.4851 21.76M51.1171 51.008C53.2878 50.8647 55.4679 51.0045 57.6024 51.424C57.2291 55.632 55.4878 59.2827 50.9038 59.5333C47.9384 59.7013 44.9384 58.376 44.7918 55.6373C44.6851 53.6 46.1918 51.2907 51.1171 51.008Z" fill="#262D48"/>
</svg>
