<svg width="100" height="100" viewBox="0 0 100 100" fill="none" xmlns="http://www.w3.org/2000/svg">
<rect width="100" height="100" fill="#EF7D57"/>
<path d="M47.3334 23.3334V40.4374C43.6409 39.7521 39.8269 40.2215 36.4108 41.7818C32.9948 43.3422 30.1426 45.9175 28.2429 49.1571C26.3431 52.3967 25.4881 56.1432 25.7942 59.8862C26.1003 63.6293 27.5527 67.187 29.9536 70.0749C32.3544 72.9629 35.5871 75.0406 39.2113 76.0251C42.8355 77.0097 46.6751 76.8532 50.2072 75.5771C53.7393 74.3009 56.7922 71.9671 58.9501 68.8934C61.1081 65.8197 62.2662 62.1556 62.2667 58.4V48.4374C65.1334 49.6566 68.2183 50.279 71.3334 50.2667H74.0001V35.3334H71.3334C66.2587 35.3334 62.2667 31.2347 62.2667 26V23.3334H47.3334ZM52.6667 28.6667H57.1681C58.2187 34.5867 62.7147 39.3227 68.6667 40.4267V44.7414C65.8987 44.336 63.4001 43.296 61.0854 41.7467L56.9334 38.968V58.4C56.9332 60.9864 56.1575 63.5132 54.7066 65.6543C53.2557 67.7953 51.1962 69.4521 48.7942 70.4108C46.3921 71.3695 43.7577 71.586 41.2314 71.0324C38.705 70.4787 36.4026 69.1803 34.6217 67.3048C32.8407 65.4294 31.6629 63.0631 31.2405 60.5115C30.818 57.9599 31.1702 55.3403 32.2517 52.9909C33.3331 50.6415 35.0941 48.6703 37.3072 47.3319C39.5203 45.9935 42.0839 45.3494 44.6667 45.4827V49.76C42.9293 49.626 41.1919 50.0188 39.6811 50.8872C38.1703 51.7556 36.9564 53.0593 36.1978 54.6281C35.4392 56.1968 35.1711 57.9579 35.4285 59.6813C35.6859 61.4048 36.4569 63.0106 37.6408 64.2892C38.8247 65.5679 40.3666 66.4599 42.0652 66.8489C43.7638 67.238 45.5402 67.106 47.1626 66.4701C48.785 65.8342 50.1781 64.724 51.16 63.2844C52.1418 61.8448 52.6669 60.1426 52.6667 58.4V28.6667ZM40.6667 58.4C40.6667 57.516 41.0179 56.6681 41.6431 56.043C42.2682 55.4179 43.116 55.0667 44.0001 55.0667C44.8841 55.0667 45.732 55.4179 46.3571 56.043C46.9822 56.6681 47.3334 57.516 47.3334 58.4C47.3334 59.2841 46.9822 60.1319 46.3571 60.7571C45.732 61.3822 44.8841 61.7334 44.0001 61.7334C43.116 61.7334 42.2682 61.3822 41.6431 60.7571C41.0179 60.1319 40.6667 59.2841 40.6667 58.4Z" fill="#262D48"/>
</svg>
