<svg width="100" height="100" viewBox="0 0 100 100" fill="none" xmlns="http://www.w3.org/2000/svg">
<rect width="100" height="100" fill="#EF7D57"/>
<g clip-path="url(#clip0_85_107)">
<path fill-rule="evenodd" clip-rule="evenodd" d="M63.3837 81.563C63.893 81.7615 64.4377 81.8531 64.9839 81.8321C65.5301 81.8111 66.0661 81.678 66.5587 81.441L79.7352 75.1004C80.4138 74.7738 80.9863 74.2622 81.387 73.6245C81.7877 72.9869 82.0002 72.2491 82.0002 71.4959V28.5044C82.0003 27.7513 81.7878 27.0133 81.3871 26.3756C80.9865 25.7378 80.4138 25.2261 79.7352 24.8994L66.5587 18.5599C65.8141 18.2017 64.9766 18.0838 64.1621 18.2224C63.3475 18.3611 62.5963 18.7495 62.0122 19.3339L36.7872 42.3469L25.8002 34.0064C25.3045 33.6303 24.6928 33.4395 24.0712 33.4671C23.4495 33.4947 22.8571 33.7389 22.3967 34.1574L18.8727 37.3629C18.5981 37.6127 18.3786 37.9171 18.2283 38.2565C18.078 38.596 18.0003 38.9631 18 39.3343C17.9997 39.7055 18.0769 40.0727 18.2267 40.4124C18.3764 40.7521 18.5954 41.0568 18.8697 41.3069L28.3982 49.9999L18.8702 58.6935C18.5961 58.9437 18.3772 59.2484 18.2275 59.588C18.0779 59.9276 18.0007 60.2947 18.001 60.6659C18.0013 61.037 18.079 61.404 18.2292 61.7434C18.3794 62.0828 18.5987 62.3871 18.8732 62.637L22.3972 65.8424C22.8576 66.2611 23.4499 66.5054 24.0716 66.5331C24.6932 66.5607 25.3049 66.37 25.8007 65.9939L36.7877 57.6539L62.0127 80.6665C62.4031 81.0567 62.8695 81.362 63.3837 81.563ZM66.0097 35.4714L46.8702 49.9999L66.0102 64.5289L66.0097 35.4714Z" fill="#262D48"/>
</g>
<defs>
<clipPath id="clip0_85_107">
<rect width="64" height="64" fill="white" transform="translate(18 18)"/>
</clipPath>
</defs>
</svg>
