<svg width="100" height="100" viewBox="0 0 100 100" fill="none" xmlns="http://www.w3.org/2000/svg">
<rect width="100" height="100" fill="#EF7D57"/>
<path d="M71.9413 32.5706C71.9413 32.5706 73.5547 34.2986 75.808 34.2986C77.584 34.2986 78.8773 33.224 78.8773 31.752C78.8773 29.9466 77.2267 29.1146 75.2293 29.1146H74.0533L73.3493 27.528L76.4693 23.8293C77.136 23.0346 77.7013 22.536 77.7013 22.536C77.7013 22.536 77.2 22.5626 76.1893 22.5626H71.1093V19.9013H81.5147V21.848L77.3413 26.6666C79.696 27 82 28.6773 82 31.632C82 34.5386 79.8 37.2266 76 37.2266C72.376 37.2266 70.368 34.9466 70.368 34.9466L71.9413 32.568V32.5706ZM51.6453 36.1653L65.3893 60.6346L72.1707 48.5413L59.1947 25.4426H44.0933L37.8347 36.5866L31.5787 25.44H18L37.76 60.632L37.8347 60.504L37.9147 60.632L51.6453 36.1653ZM18.1413 77.2213H20.1493C20.1493 77.808 20.6613 78.3706 21.5707 78.3706C22.416 78.3706 22.9787 77.9493 22.9787 77.384C22.9787 76.9013 22.6053 76.6826 21.9653 76.5413L20.816 76.248C18.8693 75.736 18.3707 74.7013 18.3707 73.5973C18.3707 72.2533 19.704 71.0266 21.584 71.0266C23.12 71.0266 24.8587 71.808 24.8347 73.7253H22.8C22.8 73.1386 22.2613 72.7653 21.648 72.7653C20.9813 72.7653 20.52 73.1493 20.52 73.688C20.52 74.136 20.944 74.392 21.4427 74.5066L22.824 74.88C24.7707 75.376 25.1173 76.592 25.1173 77.3866C25.1173 79.1386 23.3627 80.0986 21.608 80.0986C19.9067 80.0986 18.1787 79.0666 18.1413 77.2213ZM26.8933 75.5573C26.8933 72.8186 29.096 71.024 31.592 71.024C33.088 71.024 34.304 71.6906 35.0987 72.6906L33.5867 73.8906C33.3425 73.613 33.0412 73.3915 32.7033 73.2415C32.3654 73.0914 31.999 73.0163 31.6293 73.0213C30.1333 73.0213 29.056 74.0986 29.056 75.5546C29.056 77.0026 30.1333 78.104 31.6293 78.104C31.9992 78.1087 32.3657 78.0332 32.7036 77.8826C33.0415 77.7321 33.3428 77.5101 33.5867 77.232L35.0987 78.4346C34.6803 78.9617 34.1467 79.3857 33.5387 79.6742C32.9308 79.9627 32.2648 80.1079 31.592 80.0986C29.096 80.0986 26.8933 78.296 26.8933 75.5573ZM45.4373 75.032V79.8666H43.288V75.184C43.288 73.8 42.456 73.0586 41.496 73.0586C40.5093 73.0586 39.296 73.6346 39.296 75.312V79.88H37.144V66.5466H39.3067V72.5466C39.7307 71.496 41.1253 71.0106 41.9813 71.0106C44.208 71.024 45.4373 72.5226 45.4373 75.032ZM47.6907 75.5573C47.6907 72.8186 49.8133 71.024 52.272 71.024C54.7307 71.024 56.8773 72.8186 56.8773 75.5573C56.8773 78.296 54.728 80.0986 52.272 80.0986C49.8133 80.0986 47.6907 78.296 47.6907 75.5573ZM54.7147 75.5573C54.7147 74.072 53.6027 73.024 52.272 73.024C50.9413 73.024 49.8533 74.072 49.8533 75.5573C49.8533 77.0666 50.9413 78.104 52.272 78.104C53.6027 78.104 54.7147 77.064 54.7147 75.5573ZM58.7093 75.5573C58.7093 72.8186 60.832 71.024 63.2907 71.024C65.7493 71.024 67.896 72.8186 67.896 75.5573C67.896 78.296 65.7467 80.0986 63.2907 80.0986C60.8453 80.0986 58.7093 78.296 58.7093 75.5573ZM65.7333 75.5573C65.7333 74.072 64.6213 73.024 63.2907 73.024C61.96 73.024 60.872 74.072 60.872 75.5573C60.872 77.0666 61.96 78.104 63.2907 78.104C64.6347 78.104 65.7333 77.064 65.7333 75.5573ZM70.2773 79.8826V66.5493H72.4267V79.8826H70.2773ZM74.7707 77.2213H76.7787C76.7787 77.808 77.2907 78.3706 78.2 78.3706C79.0427 78.3706 79.608 77.9493 79.608 77.384C79.608 76.9013 79.2347 76.6826 78.5947 76.5413L77.4453 76.248C75.4987 75.736 75 74.7013 75 73.5973C75 72.2533 76.3307 71.0266 78.2133 71.0266C79.7467 71.0266 81.488 71.808 81.464 73.7253H79.416C79.416 73.1386 78.8773 72.7653 78.264 72.7653C77.5973 72.7653 77.136 73.1493 77.136 73.688C77.136 74.136 77.56 74.392 78.0587 74.5066L79.44 74.88C81.3867 75.376 81.7333 76.592 81.7333 77.3866C81.7333 79.1386 79.9787 80.0986 78.224 80.0986C76.5227 80.0986 74.808 79.0666 74.7707 77.2213Z" fill="#262D48"/>
</svg>
