<svg width="611" height="133" viewBox="0 0 611 133" fill="none" xmlns="http://www.w3.org/2000/svg">
<rect width="611" height="87" fill="#262D48"/>
<path d="M36.56 61V25.912H57.2V29.848H40.784V41.512H55.952V45.448H40.88V61H36.56ZM63.1813 61L72.3013 25.96H78.1093L87.1813 61H82.8133L80.5093 51.688H69.9013L67.5973 61H63.1813ZM70.7653 48.04H79.5973L76.9093 37.24C76.3973 35.192 75.9973 33.48 75.7093 32.104C75.4213 30.728 75.2453 29.832 75.1813 29.416C75.1173 29.832 74.9413 30.728 74.6533 32.104C74.3653 33.48 73.9653 35.176 73.4532 37.192L70.7653 48.04ZM94.0265 61V25.96H98.3465V40.936H109.579V25.96H113.899V61H109.579V44.872H98.3465V61H94.0265ZM121.992 61V25.96H127.656L131.304 37.288C131.656 38.312 131.976 39.336 132.264 40.36C132.552 41.352 132.76 42.12 132.888 42.664C133.048 42.12 133.256 41.352 133.512 40.36C133.768 39.336 134.056 38.296 134.376 37.24L137.832 25.96H143.496V61H139.272V48.28C139.272 46.872 139.32 45.272 139.416 43.48C139.512 41.688 139.64 39.864 139.8 38.008C139.96 36.12 140.12 34.328 140.28 32.632C140.472 30.904 140.632 29.4 140.76 28.12L135.096 45.64H130.536L124.824 28.12C124.984 29.368 125.144 30.824 125.304 32.488C125.464 34.12 125.608 35.864 125.736 37.72C125.864 39.544 125.976 41.368 126.072 43.192C126.168 45.016 126.216 46.712 126.216 48.28V61H121.992ZM152.165 61V57.064H159.317V29.896H152.165V25.96H170.885V29.896H163.733V57.064H170.885V61H152.165ZM219.28 61.48C216.976 61.48 214.992 61.096 213.328 60.328C211.696 59.56 210.432 58.456 209.536 57.016C208.64 55.576 208.176 53.864 208.144 51.88H212.464C212.464 53.64 213.056 55.032 214.24 56.056C215.456 57.08 217.136 57.592 219.28 57.592C221.296 57.592 222.864 57.096 223.984 56.104C225.136 55.112 225.712 53.736 225.712 51.976C225.712 50.568 225.328 49.336 224.56 48.28C223.824 47.224 222.752 46.488 221.344 46.072L216.592 44.584C214.192 43.848 212.336 42.616 211.023 40.888C209.744 39.16 209.104 37.128 209.104 34.792C209.104 32.904 209.52 31.272 210.352 29.896C211.216 28.488 212.416 27.4 213.952 26.632C215.488 25.832 217.296 25.432 219.376 25.432C222.448 25.432 224.912 26.296 226.768 28.024C228.624 29.72 229.568 31.992 229.6 34.84H225.28C225.28 33.112 224.752 31.768 223.696 30.808C222.672 29.816 221.216 29.32 219.328 29.32C217.472 29.32 216.016 29.768 214.96 30.664C213.936 31.56 213.424 32.808 213.424 34.408C213.424 35.848 213.808 37.096 214.576 38.152C215.344 39.208 216.448 39.96 217.888 40.408L222.688 41.944C225.024 42.68 226.832 43.928 228.112 45.688C229.392 47.448 230.031 49.512 230.031 51.88C230.031 53.8 229.583 55.48 228.688 56.92C227.792 58.36 226.528 59.48 224.896 60.28C223.296 61.08 221.424 61.48 219.28 61.48ZM245.709 61V47.896L235.149 25.96H239.613L246.573 40.36C246.957 41.16 247.261 41.848 247.485 42.424C247.709 42.968 247.853 43.368 247.917 43.624C247.981 43.368 248.125 42.968 248.349 42.424C248.605 41.848 248.925 41.16 249.309 40.36L256.125 25.96H260.589L250.029 47.896V61H245.709ZM264.65 61L273.77 25.96H279.578L288.65 61H284.282L281.978 51.688H271.37L269.066 61H264.65ZM272.234 48.04H281.066L278.378 37.24C277.866 35.192 277.466 33.48 277.178 32.104C276.89 30.728 276.714 29.832 276.65 29.416C276.586 29.832 276.41 30.728 276.122 32.104C275.834 33.48 275.434 35.176 274.922 37.192L272.234 48.04ZM295.495 61V25.96H299.815V40.936H311.047V25.96H315.367V61H311.047V44.872H299.815V61H295.495ZM324.229 61V25.96H335.077C337.157 25.96 338.981 26.392 340.549 27.256C342.117 28.088 343.333 29.256 344.197 30.76C345.061 32.264 345.493 34.024 345.493 36.04C345.493 38.408 344.869 40.44 343.621 42.136C342.405 43.832 340.741 45 338.629 45.64L345.973 61H340.885L334.165 46.12H328.549V61H324.229ZM328.549 42.232H335.077C336.869 42.232 338.309 41.672 339.397 40.552C340.485 39.4 341.029 37.896 341.029 36.04C341.029 34.152 340.485 32.648 339.397 31.528C338.309 30.408 336.869 29.848 335.077 29.848H328.549V42.232ZM362.994 61.48C359.73 61.48 357.234 60.584 355.506 58.792C353.778 56.968 352.914 54.504 352.914 51.4V25.96H357.234V51.4C357.234 53.32 357.698 54.84 358.626 55.96C359.586 57.08 361.042 57.64 362.994 57.64C364.914 57.64 366.354 57.08 367.314 55.96C368.274 54.84 368.754 53.32 368.754 51.4V25.96H373.074V51.4C373.074 54.536 372.21 57 370.482 58.792C368.786 60.584 366.29 61.48 362.994 61.48ZM382.895 61V25.96H387.215V57.064H403.055V61H382.895ZM447.178 61V47.896L436.618 25.96H441.082L448.042 40.36C448.426 41.16 448.73 41.848 448.954 42.424C449.178 42.968 449.322 43.368 449.386 43.624C449.45 43.368 449.594 42.968 449.818 42.424C450.074 41.848 450.394 41.16 450.778 40.36L457.594 25.96H462.057L451.498 47.896V61H447.178ZM466.119 61L475.239 25.96H481.047L490.119 61H485.751L483.447 51.688H472.839L470.535 61H466.119ZM473.703 48.04H482.535L479.847 37.24C479.335 35.192 478.935 33.48 478.647 32.104C478.359 30.728 478.183 29.832 478.119 29.416C478.055 29.832 477.879 30.728 477.591 32.104C477.303 33.48 476.903 35.176 476.391 37.192L473.703 48.04ZM496.964 61V25.96H501.284V40.936H512.516V25.96H516.836V61H512.516V44.872H501.284V61H496.964ZM533.521 61V47.896L522.961 25.96H527.425L534.385 40.36C534.769 41.16 535.073 41.848 535.297 42.424C535.521 42.968 535.665 43.368 535.729 43.624C535.793 43.368 535.937 42.968 536.161 42.424C536.417 41.848 536.737 41.16 537.121 40.36L543.937 25.96H548.401L537.841 47.896V61H533.521ZM552.463 61L561.583 25.96H567.391L576.463 61H572.095L569.791 51.688H559.183L556.879 61H552.463ZM560.047 48.04H568.879L566.191 37.24C565.679 35.192 565.279 33.48 564.991 32.104C564.703 30.728 564.527 29.832 564.463 29.416C564.399 29.832 564.223 30.728 563.935 32.104C563.647 33.48 563.247 35.176 562.734 37.192L560.047 48.04Z" fill="white"/>
<rect width="416" height="46" transform="translate(98 87)" fill="#323B56"/>
<path d="M120 117.2C119.12 117.2 118.36 117.033 117.72 116.7C117.093 116.367 116.607 115.887 116.26 115.26C115.927 114.62 115.76 113.867 115.76 113V106.4C115.76 105.52 115.927 104.767 116.26 104.14C116.607 103.513 117.093 103.033 117.72 102.7C118.36 102.367 119.12 102.2 120 102.2C120.88 102.2 121.633 102.367 122.26 102.7C122.9 103.033 123.387 103.513 123.72 104.14C124.067 104.767 124.24 105.513 124.24 106.38V113C124.24 113.867 124.067 114.62 123.72 115.26C123.387 115.887 122.9 116.367 122.26 116.7C121.633 117.033 120.88 117.2 120 117.2ZM120 115.58C120.787 115.58 121.387 115.36 121.8 114.92C122.227 114.467 122.44 113.827 122.44 113V106.4C122.44 105.573 122.227 104.94 121.8 104.5C121.387 104.047 120.787 103.82 120 103.82C119.227 103.82 118.627 104.047 118.2 104.5C117.773 104.94 117.56 105.573 117.56 106.4V113C117.56 113.827 117.773 114.467 118.2 114.92C118.627 115.36 119.227 115.58 120 115.58ZM127.832 117V102.4H132.352C133.219 102.4 133.979 102.58 134.632 102.94C135.286 103.287 135.792 103.773 136.152 104.4C136.512 105.027 136.692 105.76 136.692 106.6C136.692 107.587 136.432 108.433 135.912 109.14C135.406 109.847 134.712 110.333 133.832 110.6L136.892 117H134.772L131.972 110.8H129.632V117H127.832ZM129.632 109.18H132.352C133.099 109.18 133.699 108.947 134.152 108.48C134.606 108 134.832 107.373 134.832 106.6C134.832 105.813 134.606 105.187 134.152 104.72C133.699 104.253 133.099 104.02 132.352 104.02H129.632V109.18ZM139.824 117V102.4H143.604C144.551 102.4 145.364 102.58 146.044 102.94C146.738 103.3 147.271 103.807 147.644 104.46C148.031 105.113 148.224 105.887 148.224 106.78V112.6C148.224 113.493 148.031 114.273 147.644 114.94C147.271 115.593 146.738 116.1 146.044 116.46C145.364 116.82 144.551 117 143.604 117H139.824ZM141.624 115.4H143.604C144.484 115.4 145.171 115.153 145.664 114.66C146.171 114.167 146.424 113.48 146.424 112.6V106.78C146.424 105.913 146.171 105.233 145.664 104.74C145.171 104.247 144.484 104 143.604 104H141.624V115.4ZM152.077 117V115.36H155.057V104.04H152.077V102.4H159.877V104.04H156.897V115.36H159.877V117H152.077ZM163.769 117V102.4H166.169L170.629 114.9C170.602 114.567 170.569 114.16 170.529 113.68C170.502 113.187 170.475 112.673 170.449 112.14C170.435 111.593 170.429 111.08 170.429 110.6V102.4H172.169V117H169.769L165.329 104.5C165.355 104.82 165.382 105.227 165.409 105.72C165.435 106.2 165.455 106.713 165.469 107.26C165.495 107.793 165.509 108.307 165.509 108.8V117H163.769ZM174.961 117L178.761 102.4H181.181L184.961 117H183.141L182.181 113.12H177.761L176.801 117H174.961ZM178.121 111.6H181.801L180.681 107.1C180.468 106.247 180.301 105.533 180.181 104.96C180.061 104.387 179.988 104.013 179.961 103.84C179.934 104.013 179.861 104.387 179.741 104.96C179.621 105.533 179.454 106.24 179.241 107.08L178.121 111.6ZM187.793 117V102.4H192.313C193.18 102.4 193.94 102.58 194.593 102.94C195.246 103.287 195.753 103.773 196.113 104.4C196.473 105.027 196.653 105.76 196.653 106.6C196.653 107.587 196.393 108.433 195.873 109.14C195.366 109.847 194.673 110.333 193.793 110.6L196.853 117H194.733L191.933 110.8H189.593V117H187.793ZM189.593 109.18H192.313C193.06 109.18 193.66 108.947 194.113 108.48C194.566 108 194.793 107.373 194.793 106.6C194.793 105.813 194.566 105.187 194.113 104.72C193.66 104.253 193.06 104.02 192.313 104.02H189.593V109.18ZM203.045 117V111.54L198.645 102.4H200.505L203.405 108.4C203.565 108.733 203.692 109.02 203.785 109.26C203.879 109.487 203.939 109.653 203.965 109.76C203.992 109.653 204.052 109.487 204.145 109.26C204.252 109.02 204.385 108.733 204.545 108.4L207.385 102.4H209.245L204.845 111.54V117H203.045ZM223.77 117V102.4H228.47C229.376 102.4 230.163 102.58 230.83 102.94C231.496 103.287 232.01 103.78 232.37 104.42C232.743 105.06 232.93 105.82 232.93 106.7C232.93 107.567 232.743 108.327 232.37 108.98C232.01 109.62 231.496 110.12 230.83 110.48C230.163 110.827 229.376 111 228.47 111H225.57V117H223.77ZM225.57 109.38H228.47C229.256 109.38 229.883 109.14 230.35 108.66C230.83 108.167 231.07 107.513 231.07 106.7C231.07 105.873 230.83 105.22 230.35 104.74C229.883 104.26 229.256 104.02 228.47 104.02H225.57V109.38ZM235.922 117V102.4H244.322V104.04H237.702V108.56H243.622V110.18H237.702V115.36H244.322V117H235.922ZM247.754 117V102.4H252.274C253.141 102.4 253.901 102.58 254.554 102.94C255.207 103.287 255.714 103.773 256.074 104.4C256.434 105.027 256.614 105.76 256.614 106.6C256.614 107.587 256.354 108.433 255.834 109.14C255.327 109.847 254.634 110.333 253.754 110.6L256.814 117H254.694L251.894 110.8H249.554V117H247.754ZM249.554 109.18H252.274C253.021 109.18 253.621 108.947 254.074 108.48C254.527 108 254.754 107.373 254.754 106.6C254.754 105.813 254.527 105.187 254.074 104.72C253.621 104.253 253.021 104.02 252.274 104.02H249.554V109.18ZM263.986 117.2C263.026 117.2 262.2 117.04 261.506 116.72C260.826 116.4 260.3 115.94 259.926 115.34C259.553 114.74 259.36 114.027 259.346 113.2H261.146C261.146 113.933 261.393 114.513 261.886 114.94C262.393 115.367 263.093 115.58 263.986 115.58C264.826 115.58 265.48 115.373 265.946 114.96C266.426 114.547 266.666 113.973 266.666 113.24C266.666 112.653 266.506 112.14 266.186 111.7C265.88 111.26 265.433 110.953 264.846 110.78L262.866 110.16C261.866 109.853 261.093 109.34 260.546 108.62C260.013 107.9 259.746 107.053 259.746 106.08C259.746 105.293 259.92 104.613 260.266 104.04C260.626 103.453 261.126 103 261.766 102.68C262.406 102.347 263.16 102.18 264.026 102.18C265.306 102.18 266.333 102.54 267.106 103.26C267.88 103.967 268.273 104.913 268.286 106.1H266.486C266.486 105.38 266.266 104.82 265.826 104.42C265.4 104.007 264.793 103.8 264.006 103.8C263.233 103.8 262.626 103.987 262.186 104.36C261.76 104.733 261.546 105.253 261.546 105.92C261.546 106.52 261.706 107.04 262.026 107.48C262.346 107.92 262.806 108.233 263.406 108.42L265.406 109.06C266.38 109.367 267.133 109.887 267.666 110.62C268.2 111.353 268.466 112.213 268.466 113.2C268.466 114 268.28 114.7 267.906 115.3C267.533 115.9 267.006 116.367 266.326 116.7C265.66 117.033 264.88 117.2 263.986 117.2ZM275.898 117.2C275.018 117.2 274.258 117.033 273.618 116.7C272.992 116.367 272.505 115.887 272.158 115.26C271.825 114.62 271.658 113.867 271.658 113V106.4C271.658 105.52 271.825 104.767 272.158 104.14C272.505 103.513 272.992 103.033 273.618 102.7C274.258 102.367 275.018 102.2 275.898 102.2C276.778 102.2 277.532 102.367 278.158 102.7C278.798 103.033 279.285 103.513 279.618 104.14C279.965 104.767 280.138 105.513 280.138 106.38V113C280.138 113.867 279.965 114.62 279.618 115.26C279.285 115.887 278.798 116.367 278.158 116.7C277.532 117.033 276.778 117.2 275.898 117.2ZM275.898 115.58C276.685 115.58 277.285 115.36 277.698 114.92C278.125 114.467 278.338 113.827 278.338 113V106.4C278.338 105.573 278.125 104.94 277.698 104.5C277.285 104.047 276.685 103.82 275.898 103.82C275.125 103.82 274.525 104.047 274.098 104.5C273.672 104.94 273.458 105.573 273.458 106.4V113C273.458 113.827 273.672 114.467 274.098 114.92C274.525 115.36 275.125 115.58 275.898 115.58ZM283.691 117V102.4H286.091L290.551 114.9C290.524 114.567 290.491 114.16 290.451 113.68C290.424 113.187 290.397 112.673 290.371 112.14C290.357 111.593 290.351 111.08 290.351 110.6V102.4H292.091V117H289.691L285.251 104.5C285.277 104.82 285.304 105.227 285.331 105.72C285.357 106.2 285.377 106.713 285.391 107.26C285.417 107.793 285.431 108.307 285.431 108.8V117H283.691ZM310.475 117.2C309.382 117.2 308.522 116.907 307.895 116.32C307.282 115.733 306.975 114.927 306.975 113.9V111.4C306.975 110.693 307.155 110.1 307.515 109.62C307.888 109.127 308.415 108.78 309.095 108.58L308.955 108.38C308.542 107.82 308.242 107.3 308.055 106.82C307.868 106.34 307.775 105.86 307.775 105.38C307.775 104.74 307.922 104.18 308.215 103.7C308.522 103.22 308.942 102.853 309.475 102.6C310.022 102.333 310.655 102.2 311.375 102.2C312.148 102.2 312.815 102.34 313.375 102.62C313.948 102.9 314.388 103.293 314.695 103.8C315.002 104.307 315.155 104.913 315.155 105.62H313.355C313.355 105.233 313.275 104.9 313.115 104.62C312.955 104.34 312.728 104.127 312.435 103.98C312.142 103.833 311.788 103.76 311.375 103.76C311.015 103.76 310.695 103.827 310.415 103.96C310.148 104.093 309.942 104.287 309.795 104.54C309.648 104.78 309.575 105.073 309.575 105.42C309.575 105.753 309.642 106.113 309.775 106.5C309.922 106.887 310.122 107.253 310.375 107.6L313.815 112.34L315.235 109.8H317.115L314.855 113.78L317.195 117H315.215L313.955 115.26C312.968 116.553 311.808 117.2 310.475 117.2ZM310.575 115.6C311.028 115.6 311.462 115.453 311.875 115.16C312.302 114.853 312.662 114.433 312.955 113.9L310.015 109.84C309.602 109.907 309.288 110.073 309.075 110.34C308.875 110.607 308.775 110.96 308.775 111.4V113.9C308.775 114.433 308.928 114.853 309.235 115.16C309.555 115.453 310.002 115.6 310.575 115.6ZM332.039 117L330.359 102.4H332.079L333.179 113.2C333.206 113.493 333.233 113.8 333.259 114.12C333.286 114.427 333.306 114.72 333.319 115C333.346 115.28 333.359 115.513 333.359 115.7C333.386 115.513 333.406 115.28 333.419 115C333.446 114.72 333.473 114.427 333.499 114.12C333.539 113.8 333.579 113.493 333.619 113.2L334.979 102.4H336.839L338.079 113.2C338.119 113.493 338.153 113.8 338.179 114.12C338.219 114.427 338.253 114.72 338.279 115C338.319 115.28 338.346 115.513 338.359 115.7C338.373 115.513 338.386 115.28 338.399 115C338.426 114.72 338.453 114.427 338.479 114.12C338.519 113.8 338.553 113.493 338.579 113.2L339.719 102.4H341.359L339.639 117H337.379L336.139 106C336.113 105.693 336.079 105.393 336.039 105.1C336.013 104.807 335.986 104.533 335.959 104.28C335.933 104.027 335.913 103.82 335.899 103.66C335.886 103.82 335.859 104.027 335.819 104.28C335.793 104.533 335.766 104.807 335.739 105.1C335.713 105.393 335.679 105.693 335.639 106L334.299 117H332.039ZM343.852 117V102.4H352.252V104.04H345.632V108.56H351.552V110.18H345.632V115.36H352.252V117H343.852ZM355.704 117V102.4H359.844C361.177 102.4 362.217 102.733 362.964 103.4C363.724 104.067 364.104 104.993 364.104 106.18C364.104 106.847 363.964 107.427 363.684 107.92C363.404 108.413 363.004 108.793 362.484 109.06C361.977 109.327 361.364 109.453 360.644 109.44V109.14C361.417 109.127 362.084 109.273 362.644 109.58C363.217 109.887 363.657 110.327 363.964 110.9C364.284 111.473 364.444 112.153 364.444 112.94C364.444 113.767 364.27 114.487 363.924 115.1C363.577 115.713 363.084 116.187 362.444 116.52C361.804 116.84 361.037 117 360.144 117H355.704ZM357.464 115.38H359.944C360.784 115.38 361.444 115.16 361.924 114.72C362.417 114.267 362.664 113.653 362.664 112.88C362.664 112.08 362.417 111.433 361.924 110.94C361.444 110.433 360.784 110.18 359.944 110.18H357.464V115.38ZM357.464 108.62H359.824C360.597 108.62 361.204 108.413 361.644 108C362.097 107.587 362.324 107.027 362.324 106.32C362.324 105.613 362.104 105.053 361.664 104.64C361.224 104.227 360.617 104.02 359.844 104.02H357.464V108.62ZM379.668 117V102.4H384.368C385.275 102.4 386.061 102.58 386.728 102.94C387.395 103.287 387.908 103.78 388.268 104.42C388.641 105.06 388.828 105.82 388.828 106.7C388.828 107.567 388.641 108.327 388.268 108.98C387.908 109.62 387.395 110.12 386.728 110.48C386.061 110.827 385.275 111 384.368 111H381.468V117H379.668ZM381.468 109.38H384.368C385.155 109.38 385.781 109.14 386.248 108.66C386.728 108.167 386.968 107.513 386.968 106.7C386.968 105.873 386.728 105.22 386.248 104.74C385.781 104.26 385.155 104.02 384.368 104.02H381.468V109.38ZM391.66 117V102.4H396.18C397.047 102.4 397.807 102.58 398.46 102.94C399.114 103.287 399.62 103.773 399.98 104.4C400.34 105.027 400.52 105.76 400.52 106.6C400.52 107.587 400.26 108.433 399.74 109.14C399.234 109.847 398.54 110.333 397.66 110.6L400.72 117H398.6L395.8 110.8H393.46V117H391.66ZM393.46 109.18H396.18C396.927 109.18 397.527 108.947 397.98 108.48C398.434 108 398.66 107.373 398.66 106.6C398.66 105.813 398.434 105.187 397.98 104.72C397.527 104.253 396.927 104.02 396.18 104.02H393.46V109.18ZM407.813 117.2C406.933 117.2 406.173 117.033 405.533 116.7C404.906 116.367 404.419 115.887 404.073 115.26C403.739 114.62 403.573 113.867 403.573 113V106.4C403.573 105.52 403.739 104.767 404.073 104.14C404.419 103.513 404.906 103.033 405.533 102.7C406.173 102.367 406.933 102.2 407.813 102.2C408.693 102.2 409.446 102.367 410.073 102.7C410.713 103.033 411.199 103.513 411.533 104.14C411.879 104.767 412.053 105.513 412.053 106.38V113C412.053 113.867 411.879 114.62 411.533 115.26C411.199 115.887 410.713 116.367 410.073 116.7C409.446 117.033 408.693 117.2 407.813 117.2ZM407.813 115.58C408.599 115.58 409.199 115.36 409.613 114.92C410.039 114.467 410.253 113.827 410.253 113V106.4C410.253 105.573 410.039 104.94 409.613 104.5C409.199 104.047 408.599 103.82 407.813 103.82C407.039 103.82 406.439 104.047 406.013 104.5C405.586 104.94 405.373 105.573 405.373 106.4V113C405.373 113.827 405.586 114.467 406.013 114.92C406.439 115.36 407.039 115.58 407.813 115.58ZM419.885 117.2C419.005 117.2 418.238 117.033 417.585 116.7C416.945 116.367 416.445 115.887 416.085 115.26C415.738 114.62 415.565 113.867 415.565 113V106.4C415.565 105.52 415.738 104.767 416.085 104.14C416.445 103.513 416.945 103.033 417.585 102.7C418.238 102.367 419.005 102.2 419.885 102.2C420.765 102.2 421.525 102.373 422.165 102.72C422.805 103.053 423.298 103.533 423.645 104.16C423.991 104.787 424.165 105.533 424.165 106.4H422.365C422.365 105.573 422.145 104.94 421.705 104.5C421.278 104.047 420.671 103.82 419.885 103.82C419.098 103.82 418.478 104.04 418.025 104.48C417.585 104.92 417.365 105.553 417.365 106.38V113C417.365 113.827 417.585 114.467 418.025 114.92C418.478 115.373 419.098 115.6 419.885 115.6C420.671 115.6 421.278 115.373 421.705 114.92C422.145 114.467 422.365 113.827 422.365 113V111.2H419.405V109.56H424.165V113C424.165 113.853 423.991 114.6 423.645 115.24C423.298 115.867 422.805 116.353 422.165 116.7C421.525 117.033 420.765 117.2 419.885 117.2ZM427.637 117V102.4H432.157C433.024 102.4 433.784 102.58 434.437 102.94C435.09 103.287 435.597 103.773 435.957 104.4C436.317 105.027 436.497 105.76 436.497 106.6C436.497 107.587 436.237 108.433 435.717 109.14C435.21 109.847 434.517 110.333 433.637 110.6L436.697 117H434.577L431.777 110.8H429.437V117H427.637ZM429.437 109.18H432.157C432.904 109.18 433.504 108.947 433.957 108.48C434.41 108 434.637 107.373 434.637 106.6C434.637 105.813 434.41 105.187 433.957 104.72C433.504 104.253 432.904 104.02 432.157 104.02H429.437V109.18ZM438.789 117L442.589 102.4H445.009L448.789 117H446.969L446.009 113.12H441.589L440.629 117H438.789ZM441.949 111.6H445.629L444.509 107.1C444.296 106.247 444.129 105.533 444.009 104.96C443.889 104.387 443.816 104.013 443.789 103.84C443.762 104.013 443.689 104.387 443.569 104.96C443.449 105.533 443.282 106.24 443.069 107.08L441.949 111.6ZM451.301 117V102.4H453.661L455.181 107.12C455.328 107.547 455.461 107.973 455.581 108.4C455.701 108.813 455.788 109.133 455.841 109.36C455.908 109.133 455.995 108.813 456.101 108.4C456.208 107.973 456.328 107.54 456.461 107.1L457.901 102.4H460.261V117H458.501V111.7C458.501 111.113 458.521 110.447 458.561 109.7C458.601 108.953 458.655 108.193 458.721 107.42C458.788 106.633 458.855 105.887 458.921 105.18C459.001 104.46 459.068 103.833 459.121 103.3L456.761 110.6H454.861L452.481 103.3C452.548 103.82 452.615 104.427 452.681 105.12C452.748 105.8 452.808 106.527 452.861 107.3C452.915 108.06 452.961 108.82 453.001 109.58C453.041 110.34 453.061 111.047 453.061 111.7V117H451.301ZM463.293 117V102.4H465.653L467.173 107.12C467.32 107.547 467.453 107.973 467.573 108.4C467.693 108.813 467.78 109.133 467.833 109.36C467.9 109.133 467.987 108.813 468.093 108.4C468.2 107.973 468.32 107.54 468.453 107.1L469.893 102.4H472.253V117H470.493V111.7C470.493 111.113 470.513 110.447 470.553 109.7C470.593 108.953 470.647 108.193 470.713 107.42C470.78 106.633 470.847 105.887 470.913 105.18C470.993 104.46 471.06 103.833 471.113 103.3L468.753 110.6H466.853L464.473 103.3C464.54 103.82 464.607 104.427 464.673 105.12C464.74 105.8 464.8 106.527 464.853 107.3C464.907 108.06 464.953 108.82 464.993 109.58C465.033 110.34 465.053 111.047 465.053 111.7V117H463.293ZM475.766 117V102.4H484.166V104.04H477.546V108.56H483.466V110.18H477.546V115.36H484.166V117H475.766ZM487.598 117V102.4H492.118C492.984 102.4 493.744 102.58 494.398 102.94C495.051 103.287 495.558 103.773 495.918 104.4C496.278 105.027 496.458 105.76 496.458 106.6C496.458 107.587 496.198 108.433 495.678 109.14C495.171 109.847 494.478 110.333 493.598 110.6L496.658 117H494.538L491.738 110.8H489.398V117H487.598ZM489.398 109.18H492.118C492.864 109.18 493.464 108.947 493.918 108.48C494.371 108 494.598 107.373 494.598 106.6C494.598 105.813 494.371 105.187 493.918 104.72C493.464 104.253 492.864 104.02 492.118 104.02H489.398V109.18Z" fill="white"/>
</svg>
